<?xml version="1.0" standalone="no"?>
<!DOCTYPE svg PUBLIC "-//W3C//DTD SVG 20010904//EN"
 "http://www.w3.org/TR/2001/REC-SVG-20010904/DTD/svg10.dtd">
<svg version="1.0" xmlns="http://www.w3.org/2000/svg"
 width="1024.000000pt" height="1024.000000pt" viewBox="0 0 1024.000000 1024.000000"
 preserveAspectRatio="xMidYMid meet">

<g transform="translate(0.000000,1024.000000) scale(0.100000,-0.100000)"
fill="#000000" stroke="none">
<path d="M2786 8453 c-68 -129 -151 -211 -288 -284 l-73 -39 610 3 610 2 75
38 c86 43 166 109 211 173 30 44 99 162 99 170 0 2 -272 4 -604 4 l-605 0 -35
-67z"/>
<path d="M5620 7395 c-35 -8 -85 -22 -110 -30 -76 -26 -149 -29 -274 -10 -92
14 -145 16 -244 11 -70 -4 -221 -11 -337 -15 -232 -7 -247 -11 -304 -76 -40
-46 -39 -57 4 -39 25 10 77 14 192 14 87 0 197 5 243 11 130 16 264 15 379 -5
120 -21 161 -18 292 21 132 39 279 39 426 0 122 -32 192 -34 338 -7 138 25
171 25 330 -2 l131 -22 134 20 c175 25 398 25 489 0 169 -46 254 -138 238
-258 -5 -35 -4 -37 15 -27 30 16 58 87 58 148 0 149 -113 229 -356 254 -96 9
-133 8 -255 -8 -226 -28 -262 -29 -389 -6 -141 26 -169 26 -305 1 -147 -27
-238 -26 -355 5 -120 32 -253 40 -340 20z"/>
<path d="M6765 6327 c-72 -19 -102 -21 -297 -20 -195 2 -232 0 -349 -22 -165
-31 -228 -31 -357 0 -127 31 -187 31 -369 3 -130 -20 -150 -21 -225 -9 -208
32 -286 25 -333 -30 -40 -48 -34 -56 37 -51 35 3 115 -3 180 -13 116 -18 119
-18 255 3 181 29 257 28 390 -4 124 -30 199 -29 367 6 84 17 129 20 315 18
195 -2 225 0 304 20 116 29 161 28 225 -4 90 -45 155 -161 137 -244 -7 -34 4
-39 28 -12 48 53 61 166 28 237 -23 50 -84 109 -133 130 -50 20 -106 18 -203
-8z"/>
<path d="M5350 5313 c-14 -2 -110 -17 -214 -34 -209 -34 -247 -33 -453 11 -51
11 -123 20 -161 20 -58 0 -75 -4 -113 -29 -47 -30 -101 -103 -63 -86 44 20
151 16 285 -10 177 -35 266 -35 459 1 193 35 377 40 452 11 88 -34 136 -120
124 -221 -5 -48 -5 -48 14 -31 59 54 79 188 40 265 -24 47 -78 85 -140 99 -43
10 -179 13 -230 4z"/>
<path d="M6340 5311 c-49 -15 -89 -41 -119 -78 -39 -48 -39 -55 1 -35 62 30
124 27 246 -12 61 -20 122 -36 134 -36 13 0 68 12 123 26 110 27 246 34 325
15 62 -15 125 -13 190 4 91 24 140 20 196 -17 68 -47 96 -104 92 -186 l-3 -64
31 36 c76 88 70 202 -15 288 -60 60 -95 67 -216 43 -56 -11 -109 -15 -140 -11
-27 3 -100 9 -160 12 -99 6 -121 4 -212 -20 -56 -14 -116 -26 -133 -26 -17 0
-78 16 -136 35 -102 34 -154 41 -204 26z"/>
<path d="M1750 1905 l0 -196 503 5 c276 2 549 9 607 14 58 5 111 10 118 11 11
1 13 19 8 84 -3 45 -8 126 -12 180 l-6 97 -609 0 -609 0 0 -195z"/>
</g>
</svg>
